<svg data-v-fde0c5aa="" xmlns="http://www.w3.org/2000/svg" viewBox="0 0 300 300" class="iconLeft"><!----><defs data-v-fde0c5aa=""><!----></defs><rect data-v-fde0c5aa="" fill="#00242B" x="0" y="0" width="300px" height="300px" class="logo-background-square"></rect><defs data-v-fde0c5aa=""><!----></defs><g data-v-fde0c5aa="" id="e1ea8cb9-3d08-4628-a857-0bb40dff5285" fill="#7DE38D" transform="matrix(4.863721865542944,0,0,4.863721865542944,124.15625086970122,123.44407857354948)"><path d="M2.45 10.50L2.45 5.95L7.66 5.95L7.66 10.50L8.99 10.50L8.99 0.42L7.66 0.42L7.66 4.76L2.45 4.76L2.45 0.42L1.12 0.42L1.12 10.50ZM15.53 9.60C15.57 9.95 15.61 10.30 15.82 10.50L17.09 10.50C16.84 10.23 16.70 9.76 16.70 9.02L16.70 5.82C16.70 3.99 15.83 3.01 13.89 3.01C12.49 3.01 11.19 3.53 10.82 5.21L12.01 5.47C12.26 4.52 12.85 4.02 13.76 4.02C14.73 4.02 15.44 4.44 15.44 5.57L15.44 5.85C15.08 6.02 14.22 6.16 13.45 6.23C11.83 6.38 10.60 7.01 10.60 8.58C10.60 10.07 11.73 10.71 13.08 10.71C13.94 10.71 14.80 10.42 15.53 9.60ZM15.44 8.54C15.06 9.03 14.21 9.70 13.27 9.70C12.60 9.70 11.91 9.45 11.91 8.53C11.91 7.53 12.82 7.36 13.59 7.24C14.31 7.13 15.12 6.97 15.44 6.82ZM19.89 10.50L19.89 0.21L18.63 0.77L18.63 10.50ZM27.92 7.18C27.93 7.08 27.93 6.76 27.93 6.72C27.93 4.61 26.82 3.01 24.63 3.01C22.61 3.01 21.29 4.45 21.29 6.86C21.29 9.27 22.61 10.71 24.63 10.71C26.21 10.71 27.41 9.91 27.83 8.29L26.64 8.04C26.39 9.13 25.55 9.66 24.70 9.66C23.65 9.66 22.67 8.93 22.55 7.18ZM24.63 4.06C25.80 4.06 26.53 4.94 26.59 6.17L22.60 6.17C22.82 4.69 23.76 4.06 24.63 4.06Z"></path></g><defs data-v-fde0c5aa=""><!----></defs><g data-v-fde0c5aa="" id="2d96ff3b-0702-40d5-b7f5-0f0796e13b87" stroke="none" fill="#7DE38D" transform="matrix(0.8511513264700151,0,0,0.8511513264700151,35.74424336764992,107.44243367649925)"><path d="M85.5 66.9c-.7-.4-1.6-.3-2.1.3-.6.6-.5 1.2-.7 1.9-.9 3.3-5.7 3.6-7 .4V27.6l6.8-6.9c.8-.8.7-2.1-.2-2.7-.7-.5-1.4-.3-2.1-.2-1.5.2-3.1 0-4.6-.1-2-.2-3.9-.6-5.8-1-1.4-.3-3.8-1.5-4.9-.2l-7.6 9.2c-.9 1.2-.1 2.9 1.4 2.9h.7v9h-11v-9.2l7.1-9.7c1-1.4-.5-3.4-2.1-2.7-.5.2-1 .7-1.4 1.1-2.1 1.6-4.6 2.6-7.3 2.5-1.9-.1-3.7-.7-5.5-1.1-1.7-.4-3.5-.7-5.2-1.1-2.1-.4-4.2-.8-6.4-1.1-4.8-1-8.9.4-11.6 3.9-2.5 3.2-3 7.7-1.2 11.5 1.7 3.6 5.4 6.1 9.5 6.3 1 0 2.6.1 3.5-.6.8-.6.9-1.8.3-2.5-.9-.9-2.1-.9-2.9-1.7-.7-.6-1.2-1.5-1.3-2.5-.2-2 1.1-4 3.1-4.4 2.1-.5 4.2.7 4.8 2.7v8.7c-3.8.7-6.3 3.7-6.8 7.5-.1.9-.3 2 .4 2.8.6.6 1.5.7 2.2.3 1.3-.7 2.7-1.2 4.1-1.4V49c-3.8.7-6.3 3.7-6.8 7.5-.1.9-.3 2 .4 2.8.6.6 1.5.7 2.2.3 1.3-.7 2.7-1.2 4.1-1.4V64c-2.3.5-4.4 1.3-6.5 2.5-3.7 2.1-6.8 5.2-8.9 8.9-.6 1-1 2-1.4 3-.3.9-.9 1.9-.4 2.9 1.4 2.6 4.2-.9 5.5-1.7 4-2.7 8.9-3.9 13.7-3.2 2.4.3 4.8 1.1 6.9 2.3 1.1.6 2.2 1.4 3.1 2.2.8.7 1.9 1.3 2.9.4l7.7-6.6C56.3 73 54 71 52.9 70c-1.4-1.3-3-2.5-4.6-3.5V52.4h11v17c0 7.4 7.5 12.9 14.3 12.9 6.3 0 11.8-4.7 12.7-10.9.2-1.4.6-3.7-.8-4.5zM69.4 77.8c-3.4-1.4-6.5-4.5-6.5-8.4V50.6c0-1-.8-1.8-1.8-1.8H46.5c-1 0-1.8.8-1.8 1.8v17c0 1.5 1.8 2 2.8 2.7 1.2.8 2.3 1.7 3.3 2.7l-5.3 4.5C38.7 72.1 29 71 21.1 74.8c1.8-2.4 4.2-4.4 6.9-5.7 1.4-.7 2.9-1.2 4.4-1.6 1.3-.3 3-.4 2.9-2.1v-9.2c.1-3-4.7-1.7-6.3-1.2.8-1.7 2.6-2.6 4.4-2.6 1.1.1 1.9-.8 1.9-1.9V45c.1-3-4.7-1.7-6.3-1.2.5-1.1 1.4-1.9 2.6-2.3.6-.2 1.2-.2 1.9-.3 1 .1 1.9-.8 1.9-1.8V28.8c0-1.9-1.8-4-3.3-4.9-1.8-1.2-4.1-1.5-6.1-1-4.5 1.2-6.9 6.3-5.1 10.5-3.4-2-4.8-6.4-2.9-9.9.8-1.5 2.1-2.7 3.7-3.4 1.7-.7 3.3-.5 5.1-.2 2.7.4 5.4.9 8 1.5 4.2.8 8.7 2.6 13 1.6l-2.9 4c-.2.3-.3.7-.3 1.1v11.6c0 1 .8 1.8 1.8 1.8H61c1 0 1.8-.8 1.8-1.8V26.9c0-.6-.3-1.1-.8-1.5l4.7-5.7c2 .5 6.2 1.5 9.9 1.7l-4.1 4.2c-.3.4-.5.8-.5 1.3v42.9c0 1.7 1.7 3.5 3 4.4 1.7 1.1 3.7 1.4 5.7 1-2.7 3.4-7.3 4.2-11.3 2.6zm-54-17.4c-1 0-1.8-.8-1.8-1.8V45.5c0-1 .8-1.8 1.8-1.8s1.8.8 1.8 1.8v13.1c0 1-.8 1.8-1.8 1.8zM38.9 86c-.4.9-1.4 1.4-2.3 1-3.6-1.4-7.7-1.4-11.3.1-.2.1-.5.1-.7.1-.7 0-1.4-.4-1.7-1.1-.4-.9.1-2 1-2.4 4.4-1.8 9.5-1.9 13.9-.1 1 .5 1.5 1.5 1.1 2.4zm44.7-57.4c1 0 1.8.8 1.8 1.8v28.2c0 1-.8 1.8-1.8 1.8s-1.8-.8-1.8-1.8V30.4c0-1 .8-1.8 1.8-1.8zM80.6 5H18.1C10.9 5 5 10.9 5 18.1v62.6C5 88.5 11.5 95 19.4 95h61.3C88.5 95 95 88.5 95 80.6V19.4C95 11.5 88.5 5 80.6 5zm10.8 75.6c0 5.9-4.9 10.8-10.8 10.8H19.4c-5.9 0-10.8-4.9-10.8-10.8V18.1c0-5.2 4.3-9.5 9.5-9.5h62.6c5.9 0 10.8 4.9 10.8 10.8l-.1 61.2z"></path></g><!----></svg>